<mxfile host="app.diagrams.net" modified="2021-09-02T00:29:46.846Z" agent="5.0 (Macintosh; Intel Mac OS X 10_15_7) AppleWebKit/605.1.15 (KHTML, like Gecko) Version/13.1.3 Safari/605.1.15" etag="5DnHWDHsKDhMj1KhrYtc" version="15.0.5" type="github">
  <diagram id="R2lEEEUBdFMjLlhIrx00" name="Normalization">
    <mxGraphModel dx="946" dy="662" grid="1" gridSize="10" guides="1" tooltips="1" connect="1" arrows="1" fold="1" page="1" pageScale="1" pageWidth="850" pageHeight="1100" math="0" shadow="0" extFonts="Permanent Marker^https://fonts.googleapis.com/css?family=Permanent+Marker">
      <root>
        <mxCell id="0" />
        <mxCell id="1" parent="0" />
        <mxCell id="f0VPYPfYCCnypdo6puSm-45" style="edgeStyle=elbowEdgeStyle;rounded=0;orthogonalLoop=1;jettySize=auto;html=1;exitX=0.5;exitY=1;exitDx=0;exitDy=0;entryX=0.5;entryY=0;entryDx=0;entryDy=0;" edge="1" parent="1" source="f0VPYPfYCCnypdo6puSm-1" target="f0VPYPfYCCnypdo6puSm-14">
          <mxGeometry relative="1" as="geometry" />
        </mxCell>
        <mxCell id="f0VPYPfYCCnypdo6puSm-1" value="Order Details" style="shape=table;startSize=30;container=1;collapsible=1;childLayout=tableLayout;fixedRows=1;rowLines=0;fontStyle=1;align=center;resizeLast=1;" vertex="1" parent="1">
          <mxGeometry x="140" y="30" width="180" height="160" as="geometry" />
        </mxCell>
        <mxCell id="f0VPYPfYCCnypdo6puSm-2" value="" style="shape=partialRectangle;collapsible=0;dropTarget=0;pointerEvents=0;fillColor=none;top=0;left=0;bottom=1;right=0;points=[[0,0.5],[1,0.5]];portConstraint=eastwest;" vertex="1" parent="f0VPYPfYCCnypdo6puSm-1">
          <mxGeometry y="30" width="180" height="30" as="geometry" />
        </mxCell>
        <mxCell id="f0VPYPfYCCnypdo6puSm-3" value="PK" style="shape=partialRectangle;connectable=0;fillColor=none;top=0;left=0;bottom=0;right=0;fontStyle=1;overflow=hidden;" vertex="1" parent="f0VPYPfYCCnypdo6puSm-2">
          <mxGeometry width="30" height="30" as="geometry" />
        </mxCell>
        <mxCell id="f0VPYPfYCCnypdo6puSm-4" value="Order Number" style="shape=partialRectangle;connectable=0;fillColor=none;top=0;left=0;bottom=0;right=0;align=left;spacingLeft=6;fontStyle=5;overflow=hidden;" vertex="1" parent="f0VPYPfYCCnypdo6puSm-2">
          <mxGeometry x="30" width="150" height="30" as="geometry" />
        </mxCell>
        <mxCell id="f0VPYPfYCCnypdo6puSm-5" value="" style="shape=partialRectangle;collapsible=0;dropTarget=0;pointerEvents=0;fillColor=none;top=0;left=0;bottom=0;right=0;points=[[0,0.5],[1,0.5]];portConstraint=eastwest;" vertex="1" parent="f0VPYPfYCCnypdo6puSm-1">
          <mxGeometry y="60" width="180" height="30" as="geometry" />
        </mxCell>
        <mxCell id="f0VPYPfYCCnypdo6puSm-6" value="" style="shape=partialRectangle;connectable=0;fillColor=none;top=0;left=0;bottom=0;right=0;editable=1;overflow=hidden;" vertex="1" parent="f0VPYPfYCCnypdo6puSm-5">
          <mxGeometry width="30" height="30" as="geometry" />
        </mxCell>
        <mxCell id="f0VPYPfYCCnypdo6puSm-7" value="Item Description" style="shape=partialRectangle;connectable=0;fillColor=none;top=0;left=0;bottom=0;right=0;align=left;spacingLeft=6;overflow=hidden;" vertex="1" parent="f0VPYPfYCCnypdo6puSm-5">
          <mxGeometry x="30" width="150" height="30" as="geometry" />
        </mxCell>
        <mxCell id="f0VPYPfYCCnypdo6puSm-8" value="" style="shape=partialRectangle;collapsible=0;dropTarget=0;pointerEvents=0;fillColor=none;top=0;left=0;bottom=0;right=0;points=[[0,0.5],[1,0.5]];portConstraint=eastwest;" vertex="1" parent="f0VPYPfYCCnypdo6puSm-1">
          <mxGeometry y="90" width="180" height="30" as="geometry" />
        </mxCell>
        <mxCell id="f0VPYPfYCCnypdo6puSm-9" value="" style="shape=partialRectangle;connectable=0;fillColor=none;top=0;left=0;bottom=0;right=0;editable=1;overflow=hidden;" vertex="1" parent="f0VPYPfYCCnypdo6puSm-8">
          <mxGeometry width="30" height="30" as="geometry" />
        </mxCell>
        <mxCell id="f0VPYPfYCCnypdo6puSm-10" value="Item Price" style="shape=partialRectangle;connectable=0;fillColor=none;top=0;left=0;bottom=0;right=0;align=left;spacingLeft=6;overflow=hidden;" vertex="1" parent="f0VPYPfYCCnypdo6puSm-8">
          <mxGeometry x="30" width="150" height="30" as="geometry" />
        </mxCell>
        <mxCell id="f0VPYPfYCCnypdo6puSm-11" value="" style="shape=partialRectangle;collapsible=0;dropTarget=0;pointerEvents=0;fillColor=none;top=0;left=0;bottom=0;right=0;points=[[0,0.5],[1,0.5]];portConstraint=eastwest;" vertex="1" parent="f0VPYPfYCCnypdo6puSm-1">
          <mxGeometry y="120" width="180" height="30" as="geometry" />
        </mxCell>
        <mxCell id="f0VPYPfYCCnypdo6puSm-12" value="" style="shape=partialRectangle;connectable=0;fillColor=none;top=0;left=0;bottom=0;right=0;editable=1;overflow=hidden;" vertex="1" parent="f0VPYPfYCCnypdo6puSm-11">
          <mxGeometry width="30" height="30" as="geometry" />
        </mxCell>
        <mxCell id="f0VPYPfYCCnypdo6puSm-13" value="Item Number" style="shape=partialRectangle;connectable=0;fillColor=none;top=0;left=0;bottom=0;right=0;align=left;spacingLeft=6;overflow=hidden;" vertex="1" parent="f0VPYPfYCCnypdo6puSm-11">
          <mxGeometry x="30" width="150" height="30" as="geometry" />
        </mxCell>
        <mxCell id="f0VPYPfYCCnypdo6puSm-14" value="Customers" style="shape=table;startSize=30;container=1;collapsible=1;childLayout=tableLayout;fixedRows=1;rowLines=0;fontStyle=1;align=center;resizeLast=1;" vertex="1" parent="1">
          <mxGeometry x="140" y="270" width="180" height="160" as="geometry" />
        </mxCell>
        <mxCell id="f0VPYPfYCCnypdo6puSm-15" value="" style="shape=partialRectangle;collapsible=0;dropTarget=0;pointerEvents=0;fillColor=none;top=0;left=0;bottom=1;right=0;points=[[0,0.5],[1,0.5]];portConstraint=eastwest;" vertex="1" parent="f0VPYPfYCCnypdo6puSm-14">
          <mxGeometry y="30" width="180" height="30" as="geometry" />
        </mxCell>
        <mxCell id="f0VPYPfYCCnypdo6puSm-16" value="PK" style="shape=partialRectangle;connectable=0;fillColor=none;top=0;left=0;bottom=0;right=0;fontStyle=1;overflow=hidden;" vertex="1" parent="f0VPYPfYCCnypdo6puSm-15">
          <mxGeometry width="30" height="30" as="geometry" />
        </mxCell>
        <mxCell id="f0VPYPfYCCnypdo6puSm-17" value="Customer Number" style="shape=partialRectangle;connectable=0;fillColor=none;top=0;left=0;bottom=0;right=0;align=left;spacingLeft=6;fontStyle=5;overflow=hidden;" vertex="1" parent="f0VPYPfYCCnypdo6puSm-15">
          <mxGeometry x="30" width="150" height="30" as="geometry" />
        </mxCell>
        <mxCell id="f0VPYPfYCCnypdo6puSm-18" value="" style="shape=partialRectangle;collapsible=0;dropTarget=0;pointerEvents=0;fillColor=none;top=0;left=0;bottom=0;right=0;points=[[0,0.5],[1,0.5]];portConstraint=eastwest;" vertex="1" parent="f0VPYPfYCCnypdo6puSm-14">
          <mxGeometry y="60" width="180" height="30" as="geometry" />
        </mxCell>
        <mxCell id="f0VPYPfYCCnypdo6puSm-19" value="PK" style="shape=partialRectangle;connectable=0;fillColor=none;top=0;left=0;bottom=0;right=0;editable=1;overflow=hidden;" vertex="1" parent="f0VPYPfYCCnypdo6puSm-18">
          <mxGeometry width="30" height="30" as="geometry" />
        </mxCell>
        <mxCell id="f0VPYPfYCCnypdo6puSm-20" value="Order Number" style="shape=partialRectangle;connectable=0;fillColor=none;top=0;left=0;bottom=0;right=0;align=left;spacingLeft=6;overflow=hidden;" vertex="1" parent="f0VPYPfYCCnypdo6puSm-18">
          <mxGeometry x="30" width="150" height="30" as="geometry" />
        </mxCell>
        <mxCell id="f0VPYPfYCCnypdo6puSm-21" value="" style="shape=partialRectangle;collapsible=0;dropTarget=0;pointerEvents=0;fillColor=none;top=0;left=0;bottom=0;right=0;points=[[0,0.5],[1,0.5]];portConstraint=eastwest;" vertex="1" parent="f0VPYPfYCCnypdo6puSm-14">
          <mxGeometry y="90" width="180" height="30" as="geometry" />
        </mxCell>
        <mxCell id="f0VPYPfYCCnypdo6puSm-22" value="" style="shape=partialRectangle;connectable=0;fillColor=none;top=0;left=0;bottom=0;right=0;editable=1;overflow=hidden;" vertex="1" parent="f0VPYPfYCCnypdo6puSm-21">
          <mxGeometry width="30" height="30" as="geometry" />
        </mxCell>
        <mxCell id="f0VPYPfYCCnypdo6puSm-23" value="Customer Last Name" style="shape=partialRectangle;connectable=0;fillColor=none;top=0;left=0;bottom=0;right=0;align=left;spacingLeft=6;overflow=hidden;" vertex="1" parent="f0VPYPfYCCnypdo6puSm-21">
          <mxGeometry x="30" width="150" height="30" as="geometry" />
        </mxCell>
        <mxCell id="f0VPYPfYCCnypdo6puSm-24" value="" style="shape=partialRectangle;collapsible=0;dropTarget=0;pointerEvents=0;fillColor=none;top=0;left=0;bottom=0;right=0;points=[[0,0.5],[1,0.5]];portConstraint=eastwest;" vertex="1" parent="f0VPYPfYCCnypdo6puSm-14">
          <mxGeometry y="120" width="180" height="30" as="geometry" />
        </mxCell>
        <mxCell id="f0VPYPfYCCnypdo6puSm-25" value="" style="shape=partialRectangle;connectable=0;fillColor=none;top=0;left=0;bottom=0;right=0;editable=1;overflow=hidden;" vertex="1" parent="f0VPYPfYCCnypdo6puSm-24">
          <mxGeometry width="30" height="30" as="geometry" />
        </mxCell>
        <mxCell id="f0VPYPfYCCnypdo6puSm-26" value="Customer First Name" style="shape=partialRectangle;connectable=0;fillColor=none;top=0;left=0;bottom=0;right=0;align=left;spacingLeft=6;overflow=hidden;" vertex="1" parent="f0VPYPfYCCnypdo6puSm-24">
          <mxGeometry x="30" width="150" height="30" as="geometry" />
        </mxCell>
        <mxCell id="f0VPYPfYCCnypdo6puSm-30" value="Customer Info" style="shape=table;startSize=30;container=1;collapsible=1;childLayout=tableLayout;fixedRows=1;rowLines=0;fontStyle=1;align=center;resizeLast=1;" vertex="1" parent="1">
          <mxGeometry x="469" y="370" width="180" height="200" as="geometry" />
        </mxCell>
        <mxCell id="f0VPYPfYCCnypdo6puSm-31" value="" style="shape=partialRectangle;collapsible=0;dropTarget=0;pointerEvents=0;fillColor=none;top=0;left=0;bottom=1;right=0;points=[[0,0.5],[1,0.5]];portConstraint=eastwest;" vertex="1" parent="f0VPYPfYCCnypdo6puSm-30">
          <mxGeometry y="30" width="180" height="30" as="geometry" />
        </mxCell>
        <mxCell id="f0VPYPfYCCnypdo6puSm-32" value="PK" style="shape=partialRectangle;connectable=0;fillColor=none;top=0;left=0;bottom=0;right=0;fontStyle=1;overflow=hidden;" vertex="1" parent="f0VPYPfYCCnypdo6puSm-31">
          <mxGeometry width="30" height="30" as="geometry" />
        </mxCell>
        <mxCell id="f0VPYPfYCCnypdo6puSm-33" value="Customer Number" style="shape=partialRectangle;connectable=0;fillColor=none;top=0;left=0;bottom=0;right=0;align=left;spacingLeft=6;fontStyle=5;overflow=hidden;" vertex="1" parent="f0VPYPfYCCnypdo6puSm-31">
          <mxGeometry x="30" width="150" height="30" as="geometry" />
        </mxCell>
        <mxCell id="f0VPYPfYCCnypdo6puSm-34" value="" style="shape=partialRectangle;collapsible=0;dropTarget=0;pointerEvents=0;fillColor=none;top=0;left=0;bottom=0;right=0;points=[[0,0.5],[1,0.5]];portConstraint=eastwest;" vertex="1" parent="f0VPYPfYCCnypdo6puSm-30">
          <mxGeometry y="60" width="180" height="30" as="geometry" />
        </mxCell>
        <mxCell id="f0VPYPfYCCnypdo6puSm-35" value="" style="shape=partialRectangle;connectable=0;fillColor=none;top=0;left=0;bottom=0;right=0;editable=1;overflow=hidden;" vertex="1" parent="f0VPYPfYCCnypdo6puSm-34">
          <mxGeometry width="30" height="30" as="geometry" />
        </mxCell>
        <mxCell id="f0VPYPfYCCnypdo6puSm-36" value="Street Address" style="shape=partialRectangle;connectable=0;fillColor=none;top=0;left=0;bottom=0;right=0;align=left;spacingLeft=6;overflow=hidden;" vertex="1" parent="f0VPYPfYCCnypdo6puSm-34">
          <mxGeometry x="30" width="150" height="30" as="geometry" />
        </mxCell>
        <mxCell id="f0VPYPfYCCnypdo6puSm-37" value="" style="shape=partialRectangle;collapsible=0;dropTarget=0;pointerEvents=0;fillColor=none;top=0;left=0;bottom=0;right=0;points=[[0,0.5],[1,0.5]];portConstraint=eastwest;" vertex="1" parent="f0VPYPfYCCnypdo6puSm-30">
          <mxGeometry y="90" width="180" height="30" as="geometry" />
        </mxCell>
        <mxCell id="f0VPYPfYCCnypdo6puSm-38" value="" style="shape=partialRectangle;connectable=0;fillColor=none;top=0;left=0;bottom=0;right=0;editable=1;overflow=hidden;" vertex="1" parent="f0VPYPfYCCnypdo6puSm-37">
          <mxGeometry width="30" height="30" as="geometry" />
        </mxCell>
        <mxCell id="f0VPYPfYCCnypdo6puSm-39" value="City" style="shape=partialRectangle;connectable=0;fillColor=none;top=0;left=0;bottom=0;right=0;align=left;spacingLeft=6;overflow=hidden;" vertex="1" parent="f0VPYPfYCCnypdo6puSm-37">
          <mxGeometry x="30" width="150" height="30" as="geometry" />
        </mxCell>
        <mxCell id="f0VPYPfYCCnypdo6puSm-40" value="" style="shape=partialRectangle;collapsible=0;dropTarget=0;pointerEvents=0;fillColor=none;top=0;left=0;bottom=0;right=0;points=[[0,0.5],[1,0.5]];portConstraint=eastwest;" vertex="1" parent="f0VPYPfYCCnypdo6puSm-30">
          <mxGeometry y="120" width="180" height="30" as="geometry" />
        </mxCell>
        <mxCell id="f0VPYPfYCCnypdo6puSm-41" value="" style="shape=partialRectangle;connectable=0;fillColor=none;top=0;left=0;bottom=0;right=0;editable=1;overflow=hidden;" vertex="1" parent="f0VPYPfYCCnypdo6puSm-40">
          <mxGeometry width="30" height="30" as="geometry" />
        </mxCell>
        <mxCell id="f0VPYPfYCCnypdo6puSm-42" value="State Code" style="shape=partialRectangle;connectable=0;fillColor=none;top=0;left=0;bottom=0;right=0;align=left;spacingLeft=6;overflow=hidden;" vertex="1" parent="f0VPYPfYCCnypdo6puSm-40">
          <mxGeometry x="30" width="150" height="30" as="geometry" />
        </mxCell>
        <mxCell id="f0VPYPfYCCnypdo6puSm-43" value="&amp;nbsp;Zip Code" style="text;html=1;align=center;verticalAlign=middle;resizable=0;points=[];autosize=1;strokeColor=none;fillColor=none;" vertex="1" parent="1">
          <mxGeometry x="496" y="520" width="70" height="20" as="geometry" />
        </mxCell>
        <mxCell id="f0VPYPfYCCnypdo6puSm-44" value="Address Type Code" style="text;html=1;align=center;verticalAlign=middle;resizable=0;points=[];autosize=1;strokeColor=none;fillColor=none;" vertex="1" parent="1">
          <mxGeometry x="499" y="544" width="120" height="20" as="geometry" />
        </mxCell>
        <mxCell id="f0VPYPfYCCnypdo6puSm-46" style="edgeStyle=orthogonalEdgeStyle;rounded=0;orthogonalLoop=1;jettySize=auto;html=1;entryX=0;entryY=0.5;entryDx=0;entryDy=0;" edge="1" parent="1" source="f0VPYPfYCCnypdo6puSm-18" target="f0VPYPfYCCnypdo6puSm-37">
          <mxGeometry relative="1" as="geometry" />
        </mxCell>
      </root>
    </mxGraphModel>
  </diagram>
</mxfile>
